# xmcd
#
# Track frame offsets:
#   150
#   10483
#   29839
#   49795
#   69755
#   93519
#   117289
#   135115
#   142789
#
# Disc length: 2210 seconds
#
# Revision: 0
# Processed by: cddbd v1.5.2PL0 Copyright (c) Steve Scherf et al.
# Submitted via: GXTranscoder 2.0.1939
#
DISCID=7008a009
DTITLE=Diverse - Diverse
DYEAR=2000
DGENRE=Folk
TTITLE0=Rattenbranle
TTITLE1=Andro
TTITLE2=Branle de cheveaux 56
TTITLE3=branle de cheveaux 128
TTITLE4=Hungaresca 56
TTITLE5=Hungaresca 128
TTITLE6=Karascha 56
TTITLE7=Schiarazzula
TTITLE8=Chapelloise
EXTD=
EXTT0=
EXTT1=
EXTT2=
EXTT3=
EXTT4=
EXTT5=
EXTT6=
EXTT7=
EXTT8=
PLAYORDER=
